PathFileType	4	(X/Y/Z)	Patient4_TMGait_0pt6_01_right_33.trc.trc
DataRate	CameraRate	NumFrames	NumMarkers	Units	OrigDataRate	OrigDataStartFrame	OrigNumFrames
80.459770114943	80.459770114943	5	33	mm	80.459770114943	71	       141
Frame#	Time	Sacral			L.Shoulder			Chest			R.Shoulder			Neck			R.ASIS			L.ASIS			R.Thigh.Superior			R.Thigh.Lateral			R.Thigh.Inferior			R.Patella			L.Thigh.Superior			L.Thigh.Lateral			L.Thigh.Inferior			L.Patella			L.Shank.Superior			L.Shank.Lateral			L.Shank.Inferior			R.Shank.Superior			R.Shank.Lateral			R.Shank.Inferior			R.Heel			R.Midfoot.Superior			R.Midfoot.Lateral			R.Toe			L.Heel			L.Midfoot.Lateral			L.Midfoot.Superior			L.Toe			L.Elbow			L.Wrist			R.Elbow			R.Wrist			
		X1	Y1	Z1	X2	Y2	Z2	X3	Y3	Z3	X4	Y4	Z4	X5	Y5	Z5	X6	Y6	Z6	X7	Y7	Z7	X8	Y8	Z8	X9	Y9	Z9	X10	Y10	Z10	X11	Y11	Z11	X12	Y12	Z12	X13	Y13	Z13	X14	Y14	Z14	X15	Y15	Z15	X16	Y16	Z16	X17	Y17	Z17	X18	Y18	Z18	X19	Y19	Z19	X20	Y20	Z20	X21	Y21	Z21	X22	Y22	Z22	X23	Y23	Z23	X24	Y24	Z24	X25	Y25	Z25	X26	Y26	Z26	X27	Y27	Z27	X28	Y28	Z28	X29	Y29	Z29	X30	Y30	Z30	X31	Y31	Z31	X32	Y32	Z32	X33	Y33	Z33	

71	40.430000000000	744.390448875501	1003.358199971333	525.426569012216	881.043057394140	1432.062964124661	336.331551767744	1008.065831745231	1364.118675851496	479.883069905535	948.432018212735	1433.578115963330	663.530250656064	883.169033734162	1489.282650841441	491.324521961903	976.387958476207	936.846482385587	624.178129255593	943.754097169389	955.203275250112	349.951291689017	971.485072110448	723.349409933793	596.350687216344	865.707067926246	629.647489828591	655.552674106357	925.398168384208	564.594675719736	575.059557574426	904.605506631082	479.614808519281	577.456722859849	1021.265658170700	770.731861649263	378.921822339716	967.917382863682	640.047228040470	305.967839714667	1072.783061078352	582.226640711466	363.652092504567	1097.830708169900	516.861283668141	362.546845712175	1082.074855063687	443.967112649965	354.667208788314	1016.061187650233	313.342893211888	307.998463202926	1104.059216920127	216.155502567573	362.594919033010	866.074247274031	396.428818562300	581.706803719256	780.814974918285	300.346991621708	638.965925252168	811.878764315657	203.229202946084	572.353879827304	662.712533980127	44.765954046736	533.397284681295	834.558684298856	96.423953501987	572.480380112568	744.575884389027	37.084610747222	608.838020293303	952.898276721922	41.242068021082	602.117633573726	1019.123322061810	41.718828390311	403.574138782024	1092.806952721121	43.162384092110	323.125810770389	1167.238377478923	116.127761339269	343.734822226182	1299.290059933877	78.580044473597	318.057663680874	762.803771662563	1095.097962231488	242.252219778876	747.863655441459	835.284962595084	247.051032957277	1093.657947498292	1120.316004005056	759.188354497344	1281.885835818025	1248.566246803805	661.510057345107	
72	40.442428571429	744.973831299970	1001.832959330027	522.796435193836	881.075575496412	1430.546716628190	334.075952269918	1007.725290476438	1363.248722060193	478.195154535289	947.072493415134	1432.619898122240	661.651666332917	882.619427898907	1488.089402559318	489.021063596798	976.568785126877	935.445821200091	622.779664272248	945.259946775212	954.146888257517	348.531984170978	971.668671672473	721.823127476026	594.840111920726	865.394202403651	628.383676093082	653.715835578351	925.060561762695	562.933976693262	573.397021291279	903.513250912948	477.510638682069	575.451501053555	1023.136039532334	769.050236208768	378.672669388171	969.467223061326	638.691357347370	305.972664497405	1073.294199787572	580.507363850242	365.084932323134	1096.956867608462	513.718455984595	364.621280802899	1080.000740137832	440.304767121904	356.360384067277	1011.150314745072	311.401566765875	308.655393444583	1095.396318180589	211.821307767972	365.062639088684	863.907733408453	394.732531153271	580.031321867032	777.404058326589	299.985843681290	637.819090897812	806.483366051059	202.333863878916	571.341721001084	655.338440924982	45.127404881555	533.294058476847	827.019571001698	96.141263234747	571.917671291648	737.130583546407	37.284424030383	608.686959962750	945.472549103274	40.825606596752	602.213433294844	1004.520117729765	40.221039462203	404.334651133072	1079.252053174451	40.309444857599	324.691433796427	1155.763617262077	110.501753519902	347.271316168443	1287.315980451348	68.975402794103	322.737792767454	765.060738350223	1092.554057093353	239.930724230875	753.247331985082	832.514354184047	244.724548600703	1091.145355854989	1118.949500077761	759.306055967824	1278.578114056285	1247.538466308022	660.440251547242	
73	40.454857142857	745.573072546836	1000.361292953771	520.036661210185	881.247392528131	1429.084029926485	331.708258066007	1007.458732710227	1362.467203254984	476.459845116752	945.679849579520	1431.700377038956	659.731665337012	882.168793434300	1486.991484468777	486.616178502578	976.844537082212	934.096063925036	621.251856397059	946.793582666315	953.188584185850	347.054200401119	972.012849645533	720.373588853744	593.198318331125	865.204229100969	627.211670480507	651.766387665670	924.842806633934	561.344020850727	571.665456642213	902.543166264416	475.424885923809	573.409546960218	1024.916182532086	767.260704030881	378.368020841665	970.785043929130	637.434907655032	305.849463750552	1073.642733623002	578.854003477599	366.444028129539	1095.919324392892	510.776949415935	366.565779691770	1077.920568342828	436.981341045223	357.796693605770	1006.618180915777	309.676888049492	309.045804593982	1087.336598674032	208.039526296663	367.161418382536	861.744514934240	393.134312025213	578.326716466404	773.987463958241	299.803644910024	636.653219208024	801.115221777337	201.601346312096	570.378822105854	647.995960797699	45.724472098009	533.233498187142	819.557266886401	95.914595511239	571.397604666875	729.728926912379	37.578071801516	608.545115507407	938.086093212750	40.388502065694	602.302660400521	991.125795261557	39.018737606960	404.818373712745	1066.740861114940	38.089393508765	325.850785332223	1144.935854350112	105.828013865916	350.308902276375	1276.050426844814	61.004455302503	326.666089979615	767.912059286180	1089.900711623929	237.366273191010	759.607953401778	829.650399579185	241.997443146908	1087.903204274963	1117.229438795377	759.656141333475	1275.420592783477	1245.116389642040	659.695248736121	
74	40.467285714286	746.164857372729	999.062669525312	517.195092398122	881.552979531378	1427.780366883224	329.255757252847	1007.280250482849	1361.849060375647	474.677220680989	944.324389083230	1430.924110640928	657.768323782137	881.830261575634	1486.077531551598	484.133921403316	977.193429074173	932.890368171884	619.562946356516	948.274851203692	952.430039916283	345.467811377773	972.451604847175	719.091404222972	591.407651697007	865.106909927785	626.215756742253	649.719115035714	924.727775178171	559.909815857558	569.881451597844	901.718104962314	473.425162135643	571.400384643793	1026.537773700481	765.555596610111	377.945370803797	971.886641528871	636.402129268799	305.547292040691	1073.857892776827	577.415259269031	367.603383203120	1094.804391671423	508.218315339556	368.228895666345	1075.931173568755	434.151497101341	358.896600775479	1002.599511085273	308.282300019650	309.138297948411	1080.064759754218	204.950670123440	368.826355083599	859.584559311657	391.706734573763	576.645802344527	770.550889792349	299.886991938773	635.499472851846	795.792186251875	201.106237332515	569.513046468456	640.692806343779	46.639300343325	533.238356725909	812.219508844682	95.776530695224	570.975294415075	722.381883372012	37.993446860224	608.432260709674	930.744076096107	39.942914303123	602.379986583962	979.221293768766	38.158365429404	405.086146774553	1055.511907427443	36.539066288121	326.629358734354	1134.971241532351	102.244584124914	352.742137673481	1265.717722982686	54.890109171378	329.688667216176	771.404576976640	1087.245682954388	234.587854693039	766.939367833639	826.820968274276	238.894843406823	1083.892156977331	1115.242977850442	760.173874141751	1272.445935561548	1241.228945512817	659.276247259825	
75	40.479714285714	746.738236456119	998.046727263062	514.311937529583	881.975974121738	1426.738066398544	326.747612431561	1007.198160154153	1361.461404879587	472.843486618899	943.078022815579	1430.388905295406	655.755597562905	881.606866706184	1485.425470763665	481.600189758608	977.589288754112	931.920943898249	617.686183659074	949.642800662498	951.959648347992	343.715035842381	972.919621014294	718.062593394590	589.467283224467	865.082727936122	625.467590959152	647.597112998096	924.725304776789	558.709882161635	568.071176549797	901.095345470695	471.566267358047	569.510276868886	1027.955001282006	764.123073238869	377.338009541055	972.810952135521	635.690930020408	305.022136183073	1073.964231994625	576.294095441379	368.442560605580	1093.666293394297	506.154275081189	369.494975089990	1074.074320866682	431.890637937349	359.625527656247	999.118643389023	307.281725114270	308.921359192209	1073.604491900046	202.597580985850	370.041417032814	857.466201227776	390.508187615296	575.050696321816	767.105858864739	300.311744840242	634.390723948814	790.549604817505	200.912023430362	568.790842040076	633.440486408352	47.954386468144	533.327365488952	805.054402762363	95.750123715309	570.697109382443	715.099677708507	38.560708812925	608.367510062666	923.447971280687	39.503588019449	602.439705178168	968.837870473971	37.633780263830	405.193954341241	1045.588822802256	35.609541322848	327.077925999297	1125.915615025796	99.748253966763	354.538024165685	1256.365816721911	50.626893160233	331.777602528256	775.563629209925	1084.705404995824	231.624493597108	775.239056188810	824.162007739680	235.448701513252	1079.082144287426	1113.098046164352	760.787506627940	1269.663656933608	1235.800076332818	659.180546008050	
